<?xml version="1.0" standalone="no"?>
<!DOCTYPE svg PUBLIC "-//W3C//DTD SVG 20010904//EN"
 "http://www.w3.org/TR/2001/REC-SVG-20010904/DTD/svg10.dtd">
<svg version="1.0" xmlns="http://www.w3.org/2000/svg"
 width="180.000000pt" height="51.000000pt" viewBox="0 0 180.000000 51.000000"
 preserveAspectRatio="xMidYMid meet">
<metadata>
Created by potrace 1.10, written by Peter Selinger 2001-2011
</metadata>
<g transform="translate(0.000000,51.000000) scale(0.100000,-0.100000)"
fill="#000000" stroke="none">
<path d="M94 364 c3 -8 22 -80 43 -159 l37 -145 48 0 c32 0 48 4 48 13 0 27
43 197 49 192 3 -4 15 -50 26 -103 l21 -97 47 -3 c26 -2 47 0 47 3 0 3 18 74
40 156 22 83 40 152 40 153 0 2 -18 3 -39 2 l-39 -1 -15 -80 c-9 -44 -18 -97
-22 -118 -8 -47 -20 -41 -28 15 -3 24 -13 75 -22 114 l-16 70 -42 -1 -41 -1
-26 -117 c-14 -64 -28 -117 -31 -117 -3 0 -14 53 -25 117 l-19 117 -43 2 c-34
2 -42 -1 -38 -12z"/>
<path d="M572 360 c2 -8 19 -79 38 -157 l35 -143 46 0 46 0 24 105 c13 58 27
105 30 105 4 0 10 -17 14 -37 3 -21 13 -69 22 -106 l15 -68 45 3 46 3 38 145
c21 80 38 150 39 156 0 6 -16 10 -37 9 l-37 -1 -18 -84 c-9 -47 -17 -97 -18
-112 0 -34 -18 -37 -24 -5 -44 215 -39 202 -86 202 l-40 0 -27 -117 c-15 -65
-30 -118 -33 -118 -3 0 -14 53 -24 119 l-19 118 -39 -1 c-29 0 -38 -5 -36 -16z"/>
<path d="M1060 218 l0 -158 35 0 35 0 0 60 c0 78 15 78 58 0 32 -58 34 -60 72
-60 22 0 40 2 40 5 0 2 -16 30 -37 62 -25 39 -32 58 -23 61 41 14 69 76 54
120 -16 45 -51 60 -147 64 l-87 3 0 -157z m158 80 c29 -29 -2 -68 -54 -68 -33
0 -34 1 -34 40 0 40 0 40 38 40 21 0 43 -5 50 -12z"/>
<path d="M1420 358 c-109 -56 -109 -226 0 -280 102 -51 230 18 230 123 l0 39
-85 0 -85 0 0 -31 c0 -31 0 -31 50 -27 55 3 63 -7 29 -38 -13 -12 -35 -19 -61
-19 -72 0 -110 74 -73 144 8 16 22 31 30 35 29 11 72 6 85 -9 12 -14 100 -22
100 -9 0 20 -46 64 -80 78 -55 22 -88 20 -140 -6z"/>
</g>
</svg>
